<mxfile host="app.diagrams.net" modified="2022-01-11T12:19:39.827Z" agent="5.0 (Windows NT 10.0; Win64; x64) AppleWebKit/537.36 (KHTML, like Gecko) Chrome/97.0.4692.71 Safari/537.36" etag="vbcuE-4vG28ntxjiK5Rc" version="16.1.2" type="github">
  <diagram id="qh2XZvOGoz7b5zswJ_-e" name="第 1 页">
    <mxGraphModel dx="1422" dy="762" grid="1" gridSize="10" guides="1" tooltips="1" connect="1" arrows="1" fold="1" page="1" pageScale="1" pageWidth="827" pageHeight="1169" math="0" shadow="0">
      <root>
        <mxCell id="0" />
        <mxCell id="1" parent="0" />
        <mxCell id="waokHs4_Jn7dDJYkCoTz-3" value="Forge" style="whiteSpace=wrap;html=1;strokeColor=default;strokeWidth=3;fontSize=18;" vertex="1" parent="1">
          <mxGeometry x="140" y="130" width="120" height="60" as="geometry" />
        </mxCell>
        <mxCell id="waokHs4_Jn7dDJYkCoTz-5" value="Fabric" style="whiteSpace=wrap;html=1;strokeColor=default;strokeWidth=3;fontSize=18;" vertex="1" parent="1">
          <mxGeometry x="310" y="130" width="120" height="60" as="geometry" />
        </mxCell>
        <mxCell id="waokHs4_Jn7dDJYkCoTz-6" value="Paper" style="whiteSpace=wrap;html=1;strokeColor=default;strokeWidth=3;fontSize=18;" vertex="1" parent="1">
          <mxGeometry x="490" y="140" width="120" height="60" as="geometry" />
        </mxCell>
        <mxCell id="waokHs4_Jn7dDJYkCoTz-7" value="Airplane" style="whiteSpace=wrap;html=1;strokeColor=default;strokeWidth=3;fontSize=18;" vertex="1" parent="1">
          <mxGeometry x="630" y="130" width="120" height="60" as="geometry" />
        </mxCell>
        <mxCell id="waokHs4_Jn7dDJYkCoTz-8" value="Pufferfish" style="whiteSpace=wrap;html=1;strokeColor=default;strokeWidth=3;fontSize=18;" vertex="1" parent="1">
          <mxGeometry x="210" y="260" width="120" height="60" as="geometry" />
        </mxCell>
        <mxCell id="waokHs4_Jn7dDJYkCoTz-9" value="Purpur" style="whiteSpace=wrap;html=1;strokeColor=default;strokeWidth=3;fontSize=18;" vertex="1" parent="1">
          <mxGeometry x="430" y="260" width="120" height="60" as="geometry" />
        </mxCell>
        <mxCell id="waokHs4_Jn7dDJYkCoTz-10" value="Magma" style="whiteSpace=wrap;html=1;strokeColor=default;strokeWidth=3;fontSize=18;" vertex="1" parent="1">
          <mxGeometry x="630" y="250" width="120" height="60" as="geometry" />
        </mxCell>
      </root>
    </mxGraphModel>
  </diagram>
</mxfile>
